<?xml version="1.0" encoding="iso-8859-1"?>
<!-- Uploaded to: SVG Repo, www.svgrepo.com, Generator: SVG Repo Mixer Tools -->
<svg height="800px" width="800px" version="1.1" id="Layer_1" xmlns="http://www.w3.org/2000/svg" xmlns:xlink="http://www.w3.org/1999/xlink" 
	 viewBox="0 0 512 512" xml:space="preserve">
<path style="fill:#62C9CC;" d="M284.386,504.115h-56.772c-26.129,0-47.31-21.181-47.31-47.31v-85.158h151.392v85.158
	C331.696,482.934,310.515,504.115,284.386,504.115z"/>
<path style="fill:#50A9A9;" d="M209.741,456.805v-85.158h-29.437v85.158c0,26.129,21.181,47.31,47.31,47.31h29.437
	C230.923,504.115,209.741,482.934,209.741,456.805z"/>
<path style="fill:#F7D04A;" d="M256,102.505c-68.515,0-124.057,55.542-124.057,124.058c0,50.544,30.23,94.023,73.593,113.357v35.933
	h100.928V339.92c43.363-19.334,73.593-62.813,73.593-113.357C380.057,158.047,324.516,102.505,256,102.505z"/>
<path style="fill:#F3B41B;" d="M161.38,226.563c0-63.534,47.762-115.904,109.339-123.185c-4.828-0.571-9.737-0.873-14.719-0.873
	c-68.515,0-124.057,55.542-124.057,124.058c0,50.544,30.23,94.023,73.593,113.357v35.933h29.437V339.92
	C191.61,320.586,161.38,277.107,161.38,226.563z"/>
<circle style="fill:#FEE7BE;" cx="291.745" cy="157.175" r="29.437"/>
<path d="M256,94.62c-27.422,0-53.716,8.335-76.04,24.103c-3.557,2.513-4.403,7.433-1.891,10.99c2.514,3.557,7.433,4.403,10.99,1.891
	c19.648-13.878,42.796-21.214,66.942-21.214c64.058,0,116.172,52.115,116.172,116.172c0,45.82-27.052,87.489-68.919,106.155
	c-2.843,1.268-4.674,4.089-4.674,7.202v23.842h-9.4V256.893h14.099c9.877,0,18.547-5.959,22.085-15.18
	c3.539-9.221,1.081-19.45-6.261-26.057l-6.214-5.593c-7.042-6.339-16.794-7.881-25.449-4.027
	c-8.655,3.855-14.031,12.135-14.031,21.609v13.478h-34.818v-13.478c0-9.475-5.377-17.754-14.031-21.609
	c-8.655-3.855-18.406-2.312-25.449,4.027l-6.213,5.593c-7.341,6.608-9.799,16.836-6.261,26.057s12.208,15.18,22.085,15.18h14.099
	v106.869h-9.401V339.92c0-3.113-1.831-5.935-4.674-7.202c-41.867-18.666-68.919-60.335-68.919-106.155
	c0-26.823,8.877-52.014,25.675-72.85c2.732-3.391,2.199-8.355-1.19-11.087c-3.389-2.731-8.354-2.199-11.087,1.19
	c-18.808,23.333-29.167,52.72-29.167,82.747c0,50.314,28.716,96.217,73.593,118.363v18.836h-17.347c-4.355,0-7.885,3.53-7.885,7.885
	v85.158c0,30.435,24.76,55.195,55.195,55.195h56.772c30.435,0,55.195-24.76,55.195-55.195v-22.078c0-4.355-3.53-7.885-7.885-7.885
	c-4.355,0-7.885,3.53-7.885,7.885v14.193H188.189v-27.335h114.07c4.355,0,7.885-3.53,7.885-7.885c0-4.355-3.53-7.885-7.885-7.885
	h-114.07v-26.283h135.622v13.142c0,4.355,3.53,7.885,7.885,7.885c4.355,0,7.885-3.53,7.885-7.885v-21.027
	c0-4.355-3.53-7.885-7.885-7.885h-17.347v-18.836c44.877-22.147,73.593-68.051,73.593-118.363
	C387.943,153.809,328.753,94.62,256,94.62z M289.179,227.644c0-4.751,3.58-6.714,4.677-7.203c1.098-0.488,4.952-1.836,8.482,1.342
	l6.214,5.593c3.737,3.364,2.542,7.498,2.087,8.686c-0.455,1.187-2.333,5.06-7.361,5.06h-14.099L289.179,227.644L289.179,227.644z
	 M284.386,496.23h-56.772c-19.04,0-34.968-13.566-38.631-31.54h134.036C319.354,482.664,303.426,496.23,284.386,496.23z
	 M208.721,241.123c-7.11,0-10.589-8.964-5.275-13.746l6.213-5.593c5.023-4.521,13.161-0.834,13.161,5.861v13.478H208.721z
	 M238.591,256.893h34.818v106.869h-34.818V256.893z"/>
<path d="M256,59.926c4.355,0,7.885-3.53,7.885-7.885V7.885C263.885,3.53,260.355,0,256,0c-4.355,0-7.885,3.53-7.885,7.885v44.156
	C248.115,56.396,251.645,59.926,256,59.926z"/>
<path d="M160.859,79.647c2.317,4.014,7.767,5.156,11.508,2.405c3.194-2.349,4.13-6.86,2.15-10.29l-22.078-38.24
	c-2.177-3.771-7-5.064-10.771-2.886c-3.771,2.177-5.063,7-2.886,10.771L160.859,79.647z"/>
<path d="M106.982,133.525l-38.24-22.078c-3.772-2.178-8.595-0.885-10.771,2.886c-2.177,3.771-0.885,8.594,2.886,10.771l38.24,22.078
	c4.022,2.323,9.309,0.572,11.168-3.671C111.857,139.88,110.412,135.504,106.982,133.525z"/>
<path d="M87.261,228.665c0-4.355-3.53-7.885-7.885-7.885H35.22c-4.355,0-7.885,3.53-7.885,7.885c0,4.355,3.53,7.885,7.885,7.885
	h44.156C83.73,236.55,87.261,233.02,87.261,228.665z"/>
<path d="M99.097,310.149l-38.24,22.078c-3.431,1.98-4.875,6.355-3.283,9.987c1.86,4.243,7.146,5.995,11.168,3.671l38.24-22.078
	c3.771-2.177,5.063-7,2.886-10.771C107.69,309.265,102.868,307.972,99.097,310.149z"/>
<path d="M451.143,332.227l-38.24-22.078c-3.772-2.178-8.594-0.885-10.771,2.886c-2.177,3.771-0.885,8.594,2.886,10.771l38.24,22.078
	c4.022,2.323,9.309,0.572,11.168-3.671C456.019,338.582,454.574,334.207,451.143,332.227z"/>
<path d="M476.78,220.78h-44.156c-4.355,0-7.885,3.53-7.885,7.885c0,4.355,3.53,7.885,7.885,7.885h44.156
	c4.355,0,7.885-3.53,7.885-7.885C484.665,224.311,481.135,220.78,476.78,220.78z"/>
<path d="M408.968,148.239c1.337,0,2.694-0.341,3.935-1.058l38.24-22.078c3.771-2.177,5.063-7,2.886-10.771
	c-2.177-3.771-7-5.063-10.771-2.886l-38.24,22.078c-3.771,2.177-5.063,7-2.886,10.771
	C403.593,146.825,406.243,148.239,408.968,148.239z"/>
<path d="M340.37,82.533c3.725,2.151,8.624,0.833,10.771-2.886l22.078-38.24c2.177-3.771,0.885-8.594-2.886-10.771
	c-3.771-2.178-8.594-0.885-10.771,2.886l-22.078,38.24C335.306,75.533,336.598,80.356,340.37,82.533z"/>
</svg>